# xmcd
#
# Track frame offsets:
#	150
#	7082
#	30300
#	48427
#	67110
#	86765
#	108527
#	132315
#	152550
#	169192
#	187152
#	196755
#
# Disc length: 2864 seconds
#
# Revision: 0
# Processed by: cddbd v1.4PL0 Copyright (c) Steve Scherf et al.
# Submitted via: dBpowerAMP V4.0
#
DISCID=a20b2e0c
DTITLE=Joya - Here I Am
DYEAR=1995
DGENRE=R&B
TTITLE0=Joya  (Intro)
TTITLE1=I Like What You're Doing to Me
TTITLE2=Takin' Care of Business
TTITLE3=Love U All Ova
TTITLE4=Here I Am
TTITLE5=Gettin' Off On You
TTITLE6=Do It Like This, Do It Like That
TTITLE7=Willing And Waiting
TTITLE8=I Just Can't Help Myself
TTITLE9=Shouldn't Be Hard To Tell
TTITLE10=Joya (Outro)
TTITLE11=Takin' Care of Business (Queen's Mix)
EXTD=
EXTT0=
EXTT1=
EXTT2=
EXTT3=
EXTT4=
EXTT5=
EXTT6=
EXTT7=
EXTT8=
EXTT9=
EXTT10=
EXTT11=
PLAYORDER=
